<svg width="40" height="40" viewBox="0 0 40 40" fill="none" xmlns="http://www.w3.org/2000/svg">
    <circle cx="20" cy="20" r="20" fill="#E7E7E7"/>
    <path d="M29.8055 25.1153C29.8055 25.0322 29.7225 25.0322 29.7225 24.9492C29.3904 24.285 28.6432 23.4548 27.6469 22.5416C27.1488 22.1264 26.8997 21.7943 26.7337 21.6283C26.4846 21.2962 26.4846 21.0471 26.5676 20.715C26.6507 20.466 26.9827 20.0509 27.5639 19.3036C27.896 18.8885 28.062 18.6395 28.3111 18.3904C29.5564 16.7299 30.1376 15.6506 29.9716 15.1525L29.8886 15.0695C29.8055 14.9865 29.7225 14.9034 29.5564 14.9034C29.3904 14.8204 29.1413 14.8204 28.8923 14.9034H25.7374C25.6544 14.9034 25.6544 14.9034 25.4883 14.9034C25.4053 14.9034 25.3223 14.9034 25.3223 14.9034H25.2393H25.1562L25.0732 14.9865C24.9902 15.0695 24.9902 15.0695 24.9902 15.1525C24.6581 16.0658 24.243 16.813 23.8279 17.6432C23.5788 18.0583 23.3297 18.4734 23.0807 18.8055C22.8316 19.1376 22.6655 19.3867 22.4995 19.5527C22.3335 19.7188 22.1674 19.8018 22.0844 19.9678C22.0014 20.0509 21.8353 20.1339 21.8353 20.0509C21.7523 20.0509 21.6693 20.0509 21.6693 19.9678C21.5862 19.8848 21.5032 19.8018 21.4202 19.7188C21.3372 19.6357 21.3372 19.4697 21.2542 19.3036C21.2542 19.1376 21.2542 18.9716 21.2542 18.8885C21.2542 18.8055 21.2542 18.5564 21.2542 18.3904C21.2542 18.1413 21.2542 17.9753 21.2542 17.8923C21.2542 17.6432 21.2542 17.3111 21.2542 16.979C21.2542 16.6469 21.2542 16.3978 21.2542 16.2318C21.2542 16.0658 21.2542 15.8167 21.2542 15.6506C21.2542 15.4016 21.2542 15.2355 21.2542 15.1525C21.2542 15.0695 21.1712 14.9034 21.1712 14.8204C21.0881 14.7374 21.0051 14.6544 20.9221 14.5713C20.839 14.4883 20.673 14.4883 20.59 14.4053C20.1749 14.3223 19.6767 14.2393 19.0956 14.2393C17.7672 14.2393 16.854 14.3223 16.5219 14.4883C16.3558 14.5714 16.1898 14.6544 16.1067 14.8204C15.9407 14.9865 15.9407 15.0695 16.0237 15.0695C16.4388 15.1525 16.7709 15.3185 16.937 15.5676L17.02 15.7337C17.103 15.8167 17.103 15.9827 17.186 16.2318C17.2691 16.4809 17.2691 16.7299 17.2691 17.062C17.2691 17.5602 17.2691 18.0583 17.2691 18.3904C17.2691 18.8055 17.186 19.0546 17.186 19.3036C17.186 19.5527 17.103 19.7188 17.02 19.8018C16.937 19.9678 16.937 20.0509 16.8539 20.0509C16.8539 20.0509 16.8539 20.1339 16.7709 20.1339C16.6879 20.1339 16.6049 20.2169 16.4388 20.2169C16.3558 20.2169 16.1898 20.1339 16.1067 20.0509C15.9407 19.9678 15.7747 19.8018 15.6916 19.6357C15.5256 19.4697 15.3595 19.2206 15.1935 18.8885C15.0274 18.5564 14.7784 18.2244 14.6123 17.7262L14.4463 17.3941C14.3633 17.2281 14.1972 16.896 14.0312 16.4809C13.8651 16.0658 13.6991 15.7337 13.533 15.3186C13.45 15.1525 13.367 15.0695 13.284 14.9865H13.2009C13.2009 14.9865 13.1179 14.9034 13.0349 14.9034C12.9519 14.9034 12.8689 14.8204 12.7858 14.8204H9.797C9.46491 14.8204 9.29886 14.9034 9.21584 14.9865L9.13281 15.0695C9.13281 15.0695 9.13281 15.1525 9.13281 15.2355C9.13281 15.3186 9.13282 15.4016 9.21584 15.5676C9.63096 16.5639 10.1291 17.5602 10.6272 18.5564C11.1254 19.4697 11.6235 20.2999 11.9556 20.8811C12.3707 21.4623 12.7028 22.0434 13.1179 22.5416C13.533 23.0397 13.7821 23.3718 13.8651 23.5378C14.0312 23.7039 14.1142 23.7869 14.1972 23.8699L14.4463 24.119C14.6123 24.285 14.8614 24.5341 15.1935 24.7832C15.5256 25.0322 15.9407 25.2813 16.3558 25.5304C16.7709 25.7794 17.2691 25.9455 17.7672 26.1115C18.3484 26.2776 18.8465 26.3606 19.3446 26.2776H20.59C20.839 26.2776 21.0051 26.1946 21.1712 26.0285L21.2542 25.9455C21.2542 25.8625 21.3372 25.8625 21.3372 25.7794C21.3372 25.6964 21.3372 25.6134 21.3372 25.4474C21.3372 25.1153 21.3372 24.8662 21.4202 24.6171C21.5032 24.3681 21.5032 24.202 21.5863 24.036C21.6693 23.8699 21.7523 23.7869 21.8353 23.7039C21.9183 23.6208 22.0014 23.5378 22.0014 23.5378H22.0844C22.2504 23.4548 22.4995 23.5378 22.6656 23.7039C22.9146 23.8699 23.1637 24.119 23.3297 24.3681C23.4958 24.6171 23.7449 24.8662 24.077 25.1983C24.409 25.5304 24.6581 25.7794 24.8242 25.8625L25.0732 26.0285C25.2393 26.1115 25.4053 26.1946 25.6544 26.2776C25.9035 26.3606 26.0695 26.3606 26.2355 26.3606L29.0583 26.2776C29.3074 26.2776 29.5565 26.1946 29.7225 26.1115C29.8885 26.0285 29.9716 25.9455 29.9716 25.7794C29.9716 25.6964 29.9716 25.5304 29.9716 25.4474C29.8055 25.2813 29.8055 25.1983 29.8055 25.1153Z"
          fill="white"/>
</svg>