<svg width="75" height="38" viewBox="0 0 75 38" fill="none" xmlns="http://www.w3.org/2000/svg">
    <path d="M64.8536 10.8463V20.1367H61.5661V13.6197H58.4007V20.1367H55.1133V10.8457H64.8536V10.8463Z" fill="black"/>
    <path fill-rule="evenodd" clip-rule="evenodd"
          d="M48.3609 20.4697C51.3038 20.4697 53.4892 18.6489 53.4892 15.8885C53.4892 13.2168 51.8768 11.4821 49.1821 11.4821C47.9385 11.4821 46.9124 11.9238 46.1395 12.686C46.324 11.1106 47.6442 9.9605 49.0977 9.9605C49.4332 9.9605 51.9587 9.95512 51.9587 9.95512L53.3868 7.19727C53.3868 7.19727 50.2161 7.2701 48.7422 7.2701C45.3744 7.32932 43.0996 10.4184 43.0996 14.1703C43.0996 18.5412 45.3182 20.4697 48.3609 20.4697ZM48.3788 13.9248C49.4715 13.9248 50.229 14.6494 50.229 15.8882C50.229 17.0032 49.5559 17.9218 48.3788 17.9243C47.2529 17.9243 46.4953 17.0731 46.4953 15.9072C46.4953 14.6681 47.2529 13.9248 48.3788 13.9248Z"
          fill="black"/>
    <path d="M40.4244 17.0266C40.4244 17.0266 39.648 17.4782 38.4885 17.5637C37.1554 17.6036 35.9677 16.754 35.9677 15.2444C35.9677 13.7719 37.0158 12.928 38.4549 12.928C39.3374 12.928 40.5047 13.5452 40.5047 13.5452C40.5047 13.5452 41.3589 11.9634 41.8014 11.1724C40.9911 10.5527 39.9119 10.2129 38.6567 10.2129C35.4888 10.2129 33.0352 12.2972 33.0352 15.2257C33.0352 18.1916 35.3413 20.2275 38.6567 20.166C39.5834 20.1312 40.8618 19.8028 41.641 19.2977L40.4244 17.0266Z"
          fill="black"/>
    <path d="M0 8.27148L4.56025 16.4969V21.5142L0.00533473 29.7234L0 8.27148Z" fill="#5B57A2"/>
    <path d="M17.5098 13.5027L21.7829 10.8598L30.5281 10.8516L17.5098 18.8993V13.5027Z" fill="#D90751"/>
    <path d="M17.4862 8.22288L17.5104 19.113L12.9395 16.2789V0L17.4862 8.22288Z" fill="#FAB718"/>
    <path d="M30.5287 10.8525L21.7832 10.8607L17.4862 8.22288L12.9395 0L30.5287 10.8525Z" fill="#ED6F26"/>
    <path d="M17.5104 29.769V24.4854L12.9395 21.7051L12.942 38.0001L17.5104 29.769Z" fill="#63B22F"/>
    <path d="M21.772 27.1502L4.55994 16.4969L0 8.27148L30.5093 27.1394L21.772 27.1502Z" fill="#1487C9"/>
    <path d="M12.9414 37.9994L17.5092 29.7683L21.7716 27.1494L30.509 27.1387L12.9414 37.9994Z" fill="#017F36"/>
    <path d="M0.00585938 29.7238L12.9765 21.7058L8.6158 19.0059L4.56078 21.5145L0.00585938 29.7238Z" fill="#984995"/>
    <path d="M35.9675 26.3899C35.8671 26.5191 35.735 26.6166 35.5765 26.6825C35.4139 26.7493 35.2399 26.7833 35.0644 26.7825C34.8898 26.7849 34.7162 26.7555 34.5519 26.6958C34.4044 26.6417 34.2696 26.5574 34.1559 26.4481C34.0437 26.3387 33.9556 26.2066 33.8973 26.0605C33.8343 25.9005 33.8028 25.7296 33.8048 25.5574C33.8048 25.3864 33.834 25.228 33.8945 25.0779C33.9526 24.9275 34.037 24.7986 34.1427 24.6903C34.2485 24.5798 34.3753 24.4956 34.5177 24.4297C34.663 24.3664 34.8215 24.3322 34.9957 24.3322C35.1833 24.3322 35.3575 24.3559 35.516 24.4031C35.6744 24.4506 35.8091 24.5298 35.9198 24.6406L35.7272 24.9699C35.634 24.8847 35.5242 24.82 35.4049 24.7799C35.2914 24.7431 35.1729 24.7245 35.0537 24.7248C34.9483 24.7248 34.8479 24.7457 34.7503 24.7853C34.6541 24.8244 34.5662 24.8817 34.4914 24.9541C34.4149 25.0286 34.3546 25.1183 34.3144 25.2176C34.2695 25.3202 34.2485 25.4335 34.2485 25.5599C34.2485 25.6891 34.272 25.805 34.3169 25.9051C34.3621 26.008 34.4227 26.0951 34.4992 26.1685C34.5758 26.2426 34.6655 26.2977 34.7685 26.3348C34.8717 26.3744 34.98 26.3927 35.0961 26.3927C35.2386 26.3927 35.3682 26.3636 35.4789 26.3082C35.5887 26.2547 35.6873 26.1805 35.7695 26.0897L35.9675 26.3899ZM36.5114 26.7271V24.3822H36.9287V26.1293L38.2859 24.3822H38.7033V26.7274H38.2859V24.9804L36.9287 26.7274L36.5114 26.7271ZM41.468 26.3899C41.3653 26.5202 41.2306 26.621 41.0773 26.6825C40.9145 26.7492 40.7405 26.7832 40.5648 26.7825C40.3903 26.7849 40.2168 26.7555 40.0527 26.6958C39.905 26.6417 39.7701 26.5574 39.6563 26.4481C39.5441 26.3387 39.456 26.2066 39.3978 26.0605C39.3347 25.9005 39.3033 25.7296 39.3052 25.5574C39.3052 25.3864 39.3344 25.228 39.3949 25.0779C39.4533 24.9275 39.5377 24.7986 39.6432 24.6903C39.7489 24.5798 39.8757 24.4956 40.0182 24.4297C40.1686 24.3628 40.3317 24.3296 40.4961 24.3322C40.6837 24.3322 40.8579 24.3559 41.0164 24.4031C41.1749 24.4506 41.3095 24.5298 41.4206 24.6406L41.2276 24.9699C41.1345 24.8847 41.0249 24.8199 40.9056 24.7799C40.7921 24.7431 40.6737 24.7245 40.5545 24.7248C40.3447 24.7255 40.1432 24.8076 39.9918 24.9541C39.916 25.0291 39.8558 25.1187 39.8148 25.2176C39.7699 25.3202 39.7489 25.4335 39.7489 25.5599C39.7489 25.6891 39.7728 25.805 39.8176 25.9051C39.8625 26.008 39.9231 26.0951 39.9996 26.1685C40.0762 26.2426 40.1663 26.2977 40.2692 26.3348C40.3721 26.3715 40.4804 26.3927 40.5965 26.3927C40.7393 26.3927 40.8661 26.3636 40.9794 26.3082C41.0891 26.2547 41.1877 26.1805 41.2699 26.0897L41.468 26.3899ZM41.682 24.3822H43.8234V24.7986H42.9626V26.7271H42.5453V24.7986H41.6845V24.3822H41.682Z"
          fill="black"/>
    <path fill-rule="evenodd" clip-rule="evenodd"
          d="M45.7733 26.7041C45.9318 26.6541 46.0664 26.5775 46.1825 26.4723L46.0557 26.1455C45.9792 26.2143 45.8762 26.2722 45.7523 26.3197C45.628 26.3672 45.4881 26.3906 45.3349 26.3906C45.1052 26.3906 44.915 26.3302 44.7644 26.2063C44.6141 26.0822 44.5322 25.9087 44.5137 25.687H46.32C46.3385 25.6053 46.3463 25.5132 46.3463 25.4052C46.3463 25.2443 46.3171 25.0996 46.2591 24.9679C46.205 24.8399 46.1261 24.7243 46.0269 24.6278C45.9263 24.5322 45.8077 24.4579 45.6782 24.4093C45.5427 24.3562 45.3984 24.3293 45.253 24.3301C45.0575 24.3301 44.8859 24.3643 44.7355 24.4276C44.5934 24.488 44.4649 24.5767 44.3577 24.6886C44.2537 24.7998 44.1737 24.9317 44.123 25.0758C44.0672 25.2293 44.0394 25.3918 44.0411 25.5553C44.0411 25.7399 44.0728 25.9084 44.1308 26.0588C44.1873 26.2045 44.2737 26.3365 44.3844 26.4461C44.4927 26.5537 44.6245 26.6357 44.7804 26.6937C44.9474 26.7534 45.1236 26.7828 45.3007 26.7805C45.4611 26.7795 45.6205 26.7535 45.7733 26.7041ZM44.717 24.8991C44.8463 24.7807 45.018 24.7228 45.2345 24.7228C45.4378 24.7228 45.6017 24.7782 45.7206 24.889C45.8395 24.9995 45.9026 25.1525 45.9133 25.3472H44.4873C44.5075 25.1748 44.5892 25.0153 44.717 24.8991Z"
          fill="black"/>
    <path d="M46.9141 24.3828H47.2944L48.1975 25.545L49.053 24.3828H49.4226V26.728H49.0056V25.018L48.1922 26.1061H48.1762L47.3314 25.0177V26.7277H46.9141V24.3828Z"
          fill="black"/>
    <path fill-rule="evenodd" clip-rule="evenodd"
          d="M50.557 24.3902C50.4303 24.4236 50.3093 24.4759 50.198 24.5454L50.3088 24.8779C50.4039 24.8304 50.4989 24.7908 50.594 24.7566C50.6891 24.7221 50.8106 24.7063 50.9558 24.7063C51.072 24.7063 51.1645 24.7249 51.2358 24.7617C51.307 24.7959 51.3597 24.8488 51.3967 24.9121C51.4338 24.9754 51.4576 25.0543 51.4708 25.1464C51.484 25.2386 51.4893 25.3386 51.4893 25.4469C51.4039 25.3869 51.3066 25.3464 51.2041 25.3282C51.1049 25.3083 51.0042 25.2977 50.9031 25.2965C50.7789 25.2965 50.6627 25.3152 50.5517 25.3466C50.4409 25.3782 50.3458 25.4257 50.2692 25.4891C50.1911 25.5523 50.1279 25.6323 50.0844 25.7234C50.0379 25.8231 50.0144 25.9321 50.0157 26.0423C50.0157 26.2715 50.0819 26.4508 50.2137 26.5774C50.3458 26.7038 50.52 26.7668 50.7365 26.7668C50.932 26.7668 51.088 26.7326 51.2066 26.6642C51.3255 26.5955 51.4206 26.5166 51.4893 26.427V26.7301H51.88V25.2915C51.88 24.9856 51.8141 24.7487 51.6795 24.5824C51.5474 24.4165 51.3123 24.3323 50.9797 24.3323C50.8316 24.3323 50.6916 24.3532 50.557 24.3902ZM51.2546 26.2902C51.1595 26.3586 51.0352 26.39 50.8821 26.39C50.7475 26.39 50.6417 26.3558 50.568 26.2899C50.4939 26.2215 50.4569 26.1319 50.4569 26.0211C50.4569 25.9555 50.4701 25.9001 50.4993 25.8501C50.5284 25.8 50.568 25.7604 50.6129 25.7288C50.6619 25.6957 50.7164 25.6715 50.7738 25.6575C50.8347 25.6417 50.8953 25.6338 50.9587 25.6338C51.1648 25.6338 51.3415 25.6838 51.4868 25.7893V26.0869C51.4183 26.1643 51.3403 26.2329 51.2546 26.2902ZM55.5641 23.5574C55.6485 23.5181 55.7276 23.4523 55.8017 23.3547L55.5745 23.0254C55.5164 23.1046 55.4505 23.1597 55.3764 23.1888C55.298 23.2197 55.2166 23.2427 55.1336 23.2572L55.0545 23.2714C54.9858 23.2835 54.912 23.2968 54.8326 23.3101C54.7053 23.3338 54.5812 23.3727 54.463 23.426C54.2753 23.5077 54.125 23.6182 54.0114 23.7578C53.8978 23.8975 53.808 24.0555 53.7472 24.2297C53.6855 24.4061 53.6439 24.5891 53.6232 24.775C53.6019 24.965 53.5915 25.1464 53.5915 25.3203C53.5915 25.5445 53.6204 25.7471 53.6784 25.9289C53.7368 26.111 53.8184 26.2636 53.9267 26.3874C54.0349 26.5141 54.1645 26.6091 54.3177 26.6775C54.4708 26.7459 54.6425 26.7801 54.8351 26.7801C55.0121 26.7801 55.1759 26.7459 55.3237 26.6826C55.4662 26.6217 55.5955 26.5332 55.7041 26.422C55.8095 26.3137 55.8942 26.1845 55.9523 26.0397C56.0129 25.8947 56.042 25.7392 56.042 25.5758C56.042 25.3994 56.0157 25.2389 55.9655 25.0964C55.9192 24.9605 55.8455 24.8359 55.7489 24.7303C55.6522 24.6265 55.534 24.5455 55.4028 24.4928C55.2583 24.4354 55.1041 24.4068 54.9487 24.4086C54.8483 24.4086 54.7507 24.4219 54.6556 24.4482C54.5631 24.4745 54.4744 24.5126 54.3914 24.5615C54.3109 24.6081 54.2372 24.6656 54.1724 24.7325C54.109 24.7987 54.0563 24.8725 54.0192 24.9567H54.0086C54.0167 24.8488 54.0299 24.7382 54.0534 24.6249C54.0773 24.5115 54.1115 24.4032 54.1567 24.3006C54.2016 24.198 54.2596 24.1055 54.3308 24.0213C54.4072 23.9363 54.5009 23.8689 54.6054 23.8237C54.7204 23.7685 54.842 23.7286 54.9672 23.7053L55.0501 23.6901C55.1326 23.6749 55.2114 23.6603 55.2867 23.6445C55.3871 23.6236 55.4794 23.5967 55.5641 23.5574ZM54.0958 25.8105C54.055 25.6774 54.0354 25.5387 54.0377 25.3994C54.0554 25.3195 54.0877 25.2436 54.1328 25.1756C54.1777 25.1043 54.2358 25.0413 54.3045 24.9856C54.4596 24.863 54.6513 24.7971 54.8483 24.7987C55.094 24.7987 55.2789 24.875 55.4081 25.0255C55.5377 25.1781 55.6011 25.3678 55.6011 25.597C55.6011 25.7104 55.5798 25.8133 55.5431 25.908C55.5074 26.0014 55.4535 26.0866 55.3845 26.1586C55.3156 26.2306 55.233 26.2878 55.1417 26.327C55.0466 26.3691 54.9434 26.3903 54.8273 26.3903C54.7112 26.3903 54.6054 26.3665 54.5078 26.319C54.4108 26.2725 54.3251 26.205 54.2568 26.1214C54.1852 26.0283 54.1307 25.923 54.0958 25.8105ZM59.2426 24.3823H58.8252V26.7275H59.2426V24.3823ZM56.6439 24.3823H57.0613V25.0859H57.447C57.629 25.0859 57.7768 25.1097 57.8957 25.1543C58.0146 25.1993 58.1097 25.2598 58.1809 25.3336C58.2522 25.4074 58.3024 25.4944 58.3316 25.5917C58.3604 25.6892 58.3765 25.7893 58.3765 25.8947C58.3765 26.0002 58.3604 26.1005 58.3262 26.2006C58.2945 26.3007 58.239 26.3874 58.1649 26.4666C58.0912 26.5458 57.9908 26.6091 57.864 26.6566C57.7372 26.7038 57.5841 26.7301 57.3993 26.7301H56.6414V24.3823H56.6439ZM57.0613 25.4783V26.3374H57.365C57.5737 26.3374 57.7215 26.3007 57.8059 26.2266C57.8907 26.1528 57.9327 26.0477 57.9327 25.908C57.9327 25.7655 57.8879 25.6578 57.8034 25.5837C57.7162 25.51 57.5709 25.4729 57.3704 25.4729H57.0613V25.4783Z"
          fill="black"/>
    <path d="M62.0027 26.3899C61.9023 26.5191 61.7702 26.6166 61.6117 26.6825C61.4491 26.7492 61.2751 26.7832 61.0995 26.7825C60.925 26.7849 60.7514 26.7555 60.5871 26.6958C60.4395 26.6418 60.3047 26.5575 60.1911 26.4481C60.0789 26.3386 59.9907 26.2066 59.9322 26.0605C59.8694 25.9004 59.838 25.7295 59.8399 25.5574C59.8399 25.3864 59.8688 25.228 59.9297 25.0779C59.9877 24.9275 60.0721 24.7986 60.1779 24.6903C60.2837 24.5798 60.4101 24.4956 60.5529 24.4297C60.7034 24.3628 60.8664 24.3295 61.0308 24.3322C61.2182 24.3322 61.3926 24.3559 61.5511 24.4031C61.7096 24.4506 61.8442 24.5298 61.955 24.6406L61.7623 24.9699C61.6691 24.8847 61.5594 24.82 61.44 24.7799C61.3266 24.7431 61.2081 24.7245 61.0889 24.7248C60.9834 24.7248 60.883 24.7457 60.7851 24.7853C60.689 24.8244 60.6013 24.8817 60.5265 24.9541C60.4506 25.029 60.3904 25.1187 60.3495 25.2176C60.3047 25.3202 60.2836 25.4335 60.2836 25.5599C60.2836 25.6891 60.3072 25.805 60.3521 25.9051C60.3969 26.008 60.4578 26.0951 60.5344 26.1685C60.611 26.2426 60.7007 26.2977 60.8036 26.3348C60.9069 26.3715 61.0151 26.3927 61.1312 26.3927C61.2737 26.3927 61.4005 26.3636 61.5141 26.3082C61.6239 26.2547 61.7225 26.1805 61.8047 26.0897L62.0027 26.3899ZM62.2164 24.3822H64.3581V24.7986H63.497V26.7271H63.08V24.7986H62.2192V24.3822H62.2164Z"
          fill="black"/>
    <path fill-rule="evenodd" clip-rule="evenodd"
          d="M65.2299 24.3831H64.8125V27.7715H65.2299V26.6201C65.3143 26.6755 65.4147 26.7151 65.5308 26.7413C65.6469 26.7676 65.7684 26.7806 65.8926 26.7806C66.0775 26.7806 66.2438 26.7464 66.3944 26.6834C66.5389 26.621 66.6698 26.5307 66.7798 26.4174C66.888 26.3037 66.9699 26.172 67.028 26.0165C67.086 25.8613 67.1152 25.6951 67.1152 25.5187C67.1152 25.3445 67.0889 25.184 67.0387 25.0389C66.9914 24.9012 66.9178 24.7742 66.8221 24.665C66.7282 24.5585 66.6117 24.4747 66.4813 24.4199C66.3388 24.3581 66.1849 24.3275 66.0298 24.3302C65.8663 24.3302 65.7131 24.3619 65.5678 24.4252C65.4225 24.4886 65.3089 24.5646 65.2299 24.6596V24.3831ZM65.5205 24.8179C65.6394 24.7546 65.7687 24.7229 65.9086 24.7229C66.0301 24.7229 66.1383 24.7413 66.2362 24.7809C66.3313 24.8204 66.4104 24.8759 66.4766 24.9496C66.5425 25.0234 66.5927 25.108 66.6244 25.2077C66.6586 25.3078 66.6746 25.4161 66.6746 25.5345C66.6746 25.6612 66.6533 25.7742 66.6166 25.8797C66.582 25.9797 66.527 26.0713 66.4553 26.1485C66.3832 26.2249 66.2959 26.285 66.1992 26.3249C66.0914 26.3705 65.9753 26.3929 65.8584 26.3908C65.7451 26.3908 65.6394 26.3778 65.539 26.3515C65.429 26.3213 65.3247 26.2732 65.2302 26.209V25.0469C65.3039 24.9576 65.4018 24.8812 65.5205 24.8179ZM70.3157 24.3828H69.8984V26.728H70.3157V24.3828ZM67.7146 24.3828H68.132V25.0864H68.5173C68.6996 25.0864 68.8474 25.1102 68.9664 25.1548C69.0853 25.1998 69.1804 25.2603 69.2516 25.3341C69.3229 25.4079 69.3731 25.4949 69.4019 25.5922C69.4311 25.6897 69.4468 25.7898 69.4468 25.8952C69.4468 26.0007 69.4311 26.101 69.3969 26.2011C69.3652 26.3012 69.3097 26.3879 69.2356 26.4671C69.1619 26.5463 69.0615 26.6096 68.9347 26.6571C68.8079 26.7043 68.6548 26.7306 68.4699 26.7306H67.7121V24.3828H67.7146ZM68.1348 25.4788V26.3379H68.4385C68.6469 26.3379 68.795 26.3012 68.8794 26.2271C68.9639 26.1533 69.0062 26.0482 69.0062 25.9085C69.0062 25.766 68.9614 25.6583 68.8769 25.5842C68.7897 25.5105 68.6444 25.4734 68.4439 25.4734H68.1348V25.4788Z"
          fill="black"/>
    <path d="M72.317 25.5133L73.2095 26.728H72.6973L72.0079 25.7793L71.3081 26.728H70.8223L71.7095 25.5342L70.8751 24.3828H71.3875L72.0239 25.2682L72.6707 24.3828H73.1568L72.317 25.5133ZM35.659 29.6265H34.3783V31.5816H33.9609V29.2367H36.076V31.5816H35.659V29.6265ZM38.4446 29.6528H37.6209L37.5942 30.048C37.5653 30.3827 37.5258 30.6515 37.4702 30.8567C37.4147 31.0626 37.346 31.2206 37.2669 31.3311C37.1878 31.4419 37.0952 31.5183 36.9895 31.5553C36.8804 31.5952 36.765 31.6149 36.649 31.6133L36.6173 31.2073C36.6622 31.2098 36.7149 31.1994 36.773 31.1731C36.8313 31.1468 36.8894 31.0889 36.9446 31.0021C37.0002 30.9122 37.0504 30.7858 37.0952 30.6224C37.1401 30.4565 37.1693 30.2405 37.185 29.9688L37.2274 29.2389H38.862V31.5841H38.4446V29.6528Z"
          fill="black"/>
    <path fill-rule="evenodd" clip-rule="evenodd"
          d="M39.9867 29.2415C39.8518 29.2783 39.7303 29.3308 39.6274 29.3967L39.7385 29.7289C39.8336 29.6814 39.9286 29.6418 40.0234 29.6076C40.1185 29.5734 40.2402 29.5576 40.3852 29.5576C40.5016 29.5576 40.5939 29.5759 40.6651 29.6127C40.7367 29.6472 40.7894 29.6998 40.8264 29.7631C40.8632 29.8264 40.887 29.9056 40.9002 29.9974C40.9134 30.0899 40.9187 30.19 40.9187 30.2979C40.8333 30.238 40.7359 30.1976 40.6334 30.1795C40.5343 30.1596 40.4336 30.149 40.3325 30.1478C40.2086 30.1478 40.0921 30.1662 39.9814 30.1979C39.8703 30.2295 39.7752 30.277 39.6986 30.3404C39.6205 30.4036 39.5573 30.4837 39.5138 30.5747C39.4674 30.6744 39.444 30.7834 39.4454 30.8936C39.4454 31.1225 39.5113 31.3021 39.6434 31.4284C39.7752 31.5548 39.9497 31.6181 40.1662 31.6181C40.3617 31.6181 40.5173 31.5839 40.6363 31.5152C40.7549 31.4468 40.85 31.3676 40.9187 31.278V31.5811H41.3097V30.1425C41.3097 29.8369 41.2435 29.5997 41.1089 29.4338C40.9768 29.2675 40.7417 29.1836 40.4091 29.1836C40.2664 29.1837 40.1243 29.2034 39.9867 29.2415ZM40.6865 31.1409C40.5917 31.2096 40.4674 31.2413 40.3143 31.2413C40.1769 31.2413 40.0739 31.2071 40.0002 31.1409C39.9261 31.0725 39.8891 30.9829 39.8891 30.8724C39.8891 30.8065 39.9023 30.7511 39.9315 30.7011C39.9603 30.651 40.0002 30.6114 40.0451 30.5798C40.0899 30.5481 40.1452 30.5244 40.206 30.5085C40.2664 30.4928 40.3285 30.4849 40.3909 30.4851C40.5967 30.4851 40.7737 30.5351 40.919 30.6403V30.9379C40.8504 31.0154 40.7723 31.0836 40.6865 31.1409Z"
          fill="black"/>
    <path d="M41.7188 29.2363H43.8605V29.6524H42.9994V31.5812H42.5823V29.6527H41.7216V29.2363H41.7188Z" fill="black"/>
    <path fill-rule="evenodd" clip-rule="evenodd"
          d="M45.8107 31.5572C45.9692 31.5071 46.1038 31.4305 46.2199 31.3254L46.0931 30.9986C46.0166 31.0673 45.9136 31.1252 45.7894 31.1727C45.6654 31.2202 45.5255 31.2437 45.3723 31.2437C45.1426 31.2437 44.9524 31.1832 44.8018 31.0594C44.6512 30.9356 44.5696 30.7617 44.5511 30.54H46.3574C46.3756 30.4587 46.3837 30.3662 46.3837 30.2582C46.3837 30.0977 46.3545 29.9526 46.2965 29.8209C46.2424 29.693 46.1633 29.5774 46.064 29.4811C45.9636 29.3853 45.8451 29.3109 45.7156 29.2623C45.5801 29.2092 45.4358 29.1824 45.2904 29.1831C45.0949 29.1831 44.9233 29.2173 44.773 29.2807C44.6308 29.3408 44.5022 29.4296 44.3951 29.5416C44.2911 29.6529 44.2111 29.7848 44.1601 29.9289C44.1044 30.0824 44.0767 30.2448 44.0782 30.4083C44.0782 30.5929 44.1099 30.7614 44.1679 30.9118C44.2263 31.0619 44.3132 31.1911 44.4215 31.2991C44.5298 31.4071 44.6619 31.4888 44.8178 31.5467C44.9847 31.6066 45.1607 31.6361 45.3378 31.6338C45.4938 31.6338 45.6522 31.6072 45.8107 31.5572ZM44.7519 29.7496C44.8812 29.6312 45.0529 29.5733 45.2694 29.5733C45.4756 29.5733 45.6365 29.6312 45.7555 29.7392C45.8741 29.85 45.9375 30.0027 45.9482 30.1977H44.5222C44.5424 30.0252 44.624 29.8659 44.7519 29.7496ZM46.5871 29.236H47.1152L47.9204 30.3665L47.0597 31.5809H46.5475L47.4504 30.3662L46.5871 29.236ZM48.0234 29.236H48.4407V31.5809H48.0234V29.236ZM49.9326 31.5809L49.0137 30.3662L49.872 29.2357H49.3542L48.5437 30.3662L49.4151 31.5809H49.9326ZM51.8393 31.5572C51.9977 31.5071 52.1324 31.4305 52.2485 31.3254L52.1217 30.9986C52.0451 31.0673 51.9422 31.1252 51.8182 31.1727C51.694 31.2202 51.554 31.2437 51.4009 31.2437C51.1712 31.2437 50.981 31.1832 50.8304 31.0594C50.6801 30.9356 50.5982 30.7617 50.5796 30.54H52.3859C52.4044 30.4587 52.4123 30.3662 52.4123 30.2582C52.4123 30.0977 52.3834 29.9526 52.325 29.8209C52.271 29.6931 52.192 29.5775 52.0928 29.4811C51.9923 29.3853 51.8738 29.3109 51.7442 29.2623C51.6086 29.2092 51.4644 29.1824 51.319 29.1831C51.1238 29.1831 50.9521 29.2173 50.8015 29.2807C50.6595 29.3409 50.531 29.4297 50.424 29.5416C50.3197 29.6527 50.2397 29.7847 50.189 29.9289C50.1332 30.0824 50.1054 30.2448 50.1071 30.4083C50.1071 30.5929 50.1387 30.7614 50.1968 30.9118C50.2549 31.0619 50.3421 31.1911 50.4504 31.2991C50.5586 31.4071 50.6904 31.4888 50.8464 31.5467C51.0133 31.6066 51.1895 31.6361 51.3667 31.6338C51.5271 31.6326 51.6865 31.6068 51.8393 31.5572ZM50.7805 29.7496C50.9101 29.6312 51.0817 29.5733 51.2983 29.5733C51.5016 29.5733 51.6651 29.6312 51.784 29.7392C51.903 29.85 51.9664 30.0027 51.9767 30.1977H50.5508C50.5709 30.0252 50.6526 29.8659 50.7805 29.7496ZM54.1053 28.4481C53.8596 28.4481 53.7249 28.311 53.7039 28.0371H53.3104C53.3104 28.1422 53.3289 28.2372 53.3631 28.3269C53.3976 28.4165 53.4478 28.4928 53.5137 28.5561C53.5796 28.6195 53.6644 28.6695 53.762 28.7088C53.8596 28.7483 53.9732 28.7667 54.1024 28.7667C54.2214 28.7667 54.3271 28.7483 54.4222 28.7088C54.5173 28.672 54.5964 28.6195 54.6651 28.5561C54.731 28.4928 54.784 28.4165 54.8208 28.3269C54.8578 28.2372 54.8763 28.1422 54.8763 28.0371H54.4856C54.4671 28.311 54.3375 28.4481 54.1053 28.4481ZM52.9775 29.2357V31.5809H53.3948L54.752 29.8339V31.5809H55.1694V29.2357H54.752L53.3948 30.9827V29.2357H52.9775Z"
          fill="black"/>
</svg>