<svg width="95" height="14" viewBox="0 0 95 14" fill="none" xmlns="http://www.w3.org/2000/svg">
<path d="M11.016 9.65H3.58777C3.89096 10.65 4.75 11.25 6.06383 11.25C7.07447 11.25 7.73138 10.95 8.3883 10.4L10.258 12.35C9.29787 13.45 7.83245 14 5.91223 14C2.375 13.95 0 11.75 0 8.75C0 5.7 2.375 3.55 5.60904 3.55C8.64096 3.55 11.0665 5.45 11.0665 8.8C11.0665 9.05 11.016 9.4 11.016 9.65ZM3.53723 7.8H7.73138C7.52925 6.75 6.77128 6.05 5.65957 6.05C4.49734 6.05 3.73936 6.75 3.53723 7.8Z" fill="#24B7B1"/>
<path d="M12.633 7.15001H18.141V9.85001H12.633V7.15001Z" fill="#24B7B1"/>
<path d="M19.758 8.75C19.758 5.7 22.1835 3.55 25.5186 3.55C28.9042 3.55 31.2792 5.7 31.2792 8.75C31.2792 11.8 28.9042 14 25.5186 14C22.1835 13.95 19.758 11.8 19.758 8.75ZM27.6409 8.75C27.6409 7.2 26.7314 6.35 25.5186 6.35C24.3058 6.35 23.3963 7.2 23.3963 8.75C23.3963 10.3 24.3564 11.15 25.5186 11.15C26.7314 11.15 27.6409 10.3 27.6409 8.75Z" fill="#24B7B1"/>
<path d="M37.5452 10.25L36.484 11.3V13.75H32.8963V0H36.484V7.25L40.1223 3.75H44.367L40.1223 8.05L44.7207 13.8H40.375L37.5452 10.25Z" fill="#24B7B1"/>
<path d="M56.5957 8.05V13.8H53.0585V8.6C53.0585 7.15 52.4016 6.55 51.391 6.55C50.2287 6.55 49.3697 7.25 49.3697 8.95V13.8H45.7819V3.7H49.1676V4.8C49.9761 3.95 51.1383 3.55 52.4016 3.55C54.7766 3.55 56.5957 4.9 56.5957 8.05Z" fill="#24B7B1"/>
<path d="M68.4202 8.2V13.8H65.0851V12.5C64.5798 13.45 63.5692 13.95 62.0532 13.95C59.6277 13.95 58.2633 12.6 58.2633 10.85C58.2633 9 59.6277 7.85 62.8112 7.85H64.8325C64.7819 6.85 64.0745 6.25 62.6596 6.25C61.6995 6.25 60.5878 6.6 59.8803 7.1L58.6676 4.7C59.8298 3.95 61.5479 3.55 63.1649 3.55C66.5 3.55 68.4202 5 68.4202 8.2ZM64.8325 10.55V9.7H63.266C62.1037 9.7 61.6995 10.1 61.6995 10.7C61.6995 11.3 62.2048 11.7 63.0133 11.7C63.8218 11.75 64.5293 11.35 64.8325 10.55Z" fill="#24B7B1"/>
<path d="M70.0372 11.85C70.0372 10.6 70.9973 9.75 72.1596 9.75C73.3723 9.75 74.2819 10.55 74.2819 11.85C74.2819 13.1 73.3723 13.95 72.1596 13.95C70.9468 13.95 70.0372 13.1 70.0372 11.85Z" fill="#24B7B1"/>
<path d="M82.8218 3.55V6.75C82.5186 6.7 82.266 6.7 82.0133 6.7C80.5479 6.7 79.5878 7.45 79.5878 9.2V13.85H76V3.7H79.3856V4.95C80.0931 4 81.3058 3.55 82.8218 3.55Z" fill="#24B7B1"/>
<path d="M95 3.7V13.8H91.6144V12.7C90.8564 13.55 89.7447 13.95 88.5825 13.95C86.1064 13.95 84.2367 12.55 84.2367 9.35V3.7H87.8245V8.75C87.8245 10.3 88.4309 10.95 89.492 10.95C90.5532 10.95 91.4122 10.25 91.4122 8.55V3.7H95Z" fill="#24B7B1"/>
</svg>
