<svg width="77" height="80" viewBox="0 0 77 80" fill="none" xmlns="http://www.w3.org/2000/svg">
    <path d="M76.6875 5.75C76.6875 4.24158 76.0883 2.79494 75.0217 1.72833C73.9551 0.661717 72.5084 0.0625 71 0.0625H6C4.49158 0.0625 3.04494 0.661717 1.97833 1.72833C0.911717 2.79494 0.3125 4.24158 0.3125 5.75V29.5969C0.3125 65.3469 30.6594 77.25 36.7531 79.2406C37.8871 79.6185 39.1129 79.6185 40.2469 79.2406C46.3406 77.25 76.6875 65.3469 76.6875 29.5969V5.75ZM38.7438 74.6094C38.6685 74.6485 38.5849 74.669 38.5 74.669C38.4151 74.669 38.3315 74.6485 38.2563 74.6094C32.7313 72.7812 5.1875 62.0156 5.1875 29.5969V5.75C5.1875 5.53451 5.2731 5.32785 5.42548 5.17548C5.57785 5.0231 5.78451 4.9375 6 4.9375H71C71.2155 4.9375 71.4221 5.0231 71.5745 5.17548C71.7269 5.32785 71.8125 5.53451 71.8125 5.75V29.5969C71.8125 62.0156 44.2688 72.7812 38.7438 74.6094ZM58.1219 23.5844C58.3427 23.8127 58.5159 24.0826 58.6314 24.3784C58.747 24.6743 58.8026 24.9901 58.7951 25.3076C58.7875 25.6251 58.7169 25.938 58.5874 26.228C58.4579 26.518 58.272 26.7793 58.0406 26.9969L34.2344 49.7469C33.771 50.1807 33.1628 50.4269 32.5281 50.4375C31.9033 50.4372 31.3042 50.1888 30.8625 49.7469L18.9594 38.3719C18.4961 37.9301 18.2272 37.3224 18.212 36.6824C18.1968 36.0425 18.4364 35.4227 18.8781 34.9594C19.3199 34.4961 19.9276 34.2272 20.5675 34.212C21.2075 34.1968 21.8273 34.4364 22.2906 34.8781L32.5281 44.6281L54.7094 23.5031C54.9377 23.2823 55.2076 23.1091 55.5034 22.9936C55.7993 22.878 56.1151 22.8224 56.4326 22.83C56.7501 22.8375 57.063 22.9081 57.353 23.0376C57.643 23.1671 57.9043 23.353 58.1219 23.5844Z"
          fill="#44CF5E"/>
</svg>