<svg width="56" height="56" viewBox="0 0 56 56" fill="none" xmlns="http://www.w3.org/2000/svg">
<g clip-path="url(#clip0_1894_3277)">
<path d="M25.6661 46.5387C20.3367 45.9361 15.4398 43.3174 11.9795 39.2197C8.51915 35.122 6.75759 29.8558 7.056 24.5008C7.35441 19.1458 9.69019 14.1078 13.5844 10.4199C17.4786 6.73206 22.6361 4.67373 27.9994 4.667C33.3693 4.66309 38.5367 6.71645 42.4394 10.405C46.342 14.0935 48.6834 19.137 48.9822 24.4986C49.281 29.8602 47.5145 35.1325 44.0458 39.2318C40.5771 43.3311 35.6699 45.9459 30.3328 46.5387V56.0003H25.6661V46.5387Z" fill="url(#paint0_linear_1894_3277)"/>
<path d="M38 36H18V16H38V25.7209L26.6118 28L25.9529 24.7907L34.6588 23.0233V19.3023H21.3412V32.6977H34.6588V30.2791H38V36Z" fill="white"/>
</g>
<defs>
<linearGradient id="paint0_linear_1894_3277" x1="-6.36411" y1="-29.3392" x2="45.0542" y2="65.4711" gradientUnits="userSpaceOnUse">
<stop stop-color="#7DFFFA"/>
<stop offset="1" stop-color="#24B7B1"/>
</linearGradient>
<clipPath id="clip0_1894_3277">
<rect width="56" height="56" fill="white"/>
</clipPath>
</defs>
</svg>
